<svg width="391" height="110" viewBox="0 0 391 110" fill="none" xmlns="http://www.w3.org/2000/svg">
<path d="M10.26 87V24H15.75L44.55 73.14H41.67L70.2 24H75.69V87H69.3V33.99H70.83L44.55 78.99H41.4L14.94 33.99H16.65V87H10.26ZM114.937 87.45C110.017 87.45 105.697 86.43 101.977 84.39C98.257 82.29 95.347 79.44 93.247 75.84C91.147 72.18 90.097 68.01 90.097 63.33C90.097 58.65 91.087 54.51 93.067 50.91C95.107 47.31 97.867 44.49 101.347 42.45C104.887 40.35 108.847 39.3 113.227 39.3C117.667 39.3 121.597 40.32 125.017 42.36C128.497 44.34 131.227 47.16 133.207 50.82C135.187 54.42 136.177 58.59 136.177 63.33C136.177 63.63 136.147 63.96 136.087 64.32C136.087 64.62 136.087 64.95 136.087 65.31H94.957V60.54H132.667L130.147 62.43C130.147 59.01 129.397 55.98 127.897 53.34C126.457 50.64 124.477 48.54 121.957 47.04C119.437 45.54 116.527 44.79 113.227 44.79C109.987 44.79 107.077 45.54 104.497 47.04C101.917 48.54 99.907 50.64 98.467 53.34C97.027 56.04 96.307 59.13 96.307 62.61V63.6C96.307 67.2 97.087 70.38 98.647 73.14C100.267 75.84 102.487 77.97 105.307 79.53C108.187 81.03 111.457 81.78 115.117 81.78C117.997 81.78 120.667 81.27 123.127 80.25C125.647 79.23 127.807 77.67 129.607 75.57L133.207 79.71C131.107 82.23 128.467 84.15 125.287 85.47C122.167 86.79 118.717 87.45 114.937 87.45ZM169.253 87.45C164.333 87.45 160.013 86.43 156.293 84.39C152.573 82.29 149.663 79.44 147.563 75.84C145.463 72.18 144.413 68.01 144.413 63.33C144.413 58.65 145.403 54.51 147.383 50.91C149.423 47.31 152.183 44.49 155.663 42.45C159.203 40.35 163.163 39.3 167.543 39.3C171.983 39.3 175.913 40.32 179.333 42.36C182.813 44.34 185.543 47.16 187.523 50.82C189.503 54.42 190.493 58.59 190.493 63.33C190.493 63.63 190.463 63.96 190.403 64.32C190.403 64.62 190.403 64.95 190.403 65.31H149.273V60.54H186.983L184.463 62.43C184.463 59.01 183.713 55.98 182.213 53.34C180.773 50.64 178.793 48.54 176.273 47.04C173.753 45.54 170.843 44.79 167.543 44.79C164.303 44.79 161.393 45.54 158.813 47.04C156.233 48.54 154.223 50.64 152.783 53.34C151.343 56.04 150.623 59.13 150.623 62.61V63.6C150.623 67.2 151.403 70.38 152.963 73.14C154.583 75.84 156.803 77.97 159.623 79.53C162.503 81.03 165.773 81.78 169.433 81.78C172.313 81.78 174.983 81.27 177.443 80.25C179.963 79.23 182.123 77.67 183.923 75.57L187.523 79.71C185.423 82.23 182.783 84.15 179.603 85.47C176.483 86.79 173.033 87.45 169.253 87.45ZM218.44 87.45C214 87.45 210.58 86.25 208.18 83.85C205.78 81.45 204.58 78.06 204.58 73.68V29.31H210.97V73.32C210.97 76.08 211.66 78.21 213.04 79.71C214.48 81.21 216.52 81.96 219.16 81.96C221.98 81.96 224.32 81.15 226.18 79.53L228.43 84.12C227.17 85.26 225.64 86.1 223.84 86.64C222.1 87.18 220.3 87.45 218.44 87.45ZM196.12 45.06V39.75H225.37V45.06H196.12ZM252.752 87.45C248.852 87.45 245.162 86.91 241.682 85.83C238.202 84.69 235.472 83.28 233.492 81.6L236.372 76.56C238.292 78 240.752 79.26 243.752 80.34C246.752 81.36 249.902 81.87 253.202 81.87C257.702 81.87 260.942 81.18 262.922 79.8C264.902 78.36 265.892 76.47 265.892 74.13C265.892 72.39 265.322 71.04 264.182 70.08C263.102 69.06 261.662 68.31 259.862 67.83C258.062 67.29 256.052 66.84 253.832 66.48C251.612 66.12 249.392 65.7 247.172 65.22C245.012 64.74 243.032 64.05 241.232 63.15C239.432 62.19 237.962 60.9 236.822 59.28C235.742 57.66 235.202 55.5 235.202 52.8C235.202 50.22 235.922 47.91 237.362 45.87C238.802 43.83 240.902 42.24 243.662 41.1C246.482 39.9 249.902 39.3 253.922 39.3C256.982 39.3 260.042 39.72 263.102 40.56C266.162 41.34 268.682 42.39 270.662 43.71L267.872 48.84C265.772 47.4 263.522 46.38 261.122 45.78C258.722 45.12 256.322 44.79 253.922 44.79C249.662 44.79 246.512 45.54 244.472 47.04C242.492 48.48 241.502 50.34 241.502 52.62C241.502 54.42 242.042 55.83 243.122 56.85C244.262 57.87 245.732 58.68 247.532 59.28C249.392 59.82 251.402 60.27 253.562 60.63C255.782 60.99 257.972 61.44 260.132 61.98C262.352 62.46 264.362 63.15 266.162 64.05C268.022 64.89 269.492 66.12 270.572 67.74C271.712 69.3 272.282 71.37 272.282 73.95C272.282 76.71 271.502 79.11 269.942 81.15C268.442 83.13 266.222 84.69 263.282 85.83C260.402 86.91 256.892 87.45 252.752 87.45Z" fill="white"/>
<path d="M278.83 13.22C280.11 13.22 281.22 13.47 282.16 13.97C283.12 14.45 283.86 15.19 284.38 16.19C284.92 17.17 285.19 18.39 285.19 19.85V29H283.69V19.97C283.69 18.21 283.24 16.87 282.34 15.95C281.46 15.03 280.22 14.57 278.62 14.57C277.4 14.57 276.34 14.82 275.44 15.32C274.54 15.82 273.85 16.52 273.37 17.42C272.91 18.32 272.68 19.4 272.68 20.66V29H271.18V13.34H272.62V17.69L272.41 17.21C272.89 15.97 273.68 15 274.78 14.3C275.88 13.58 277.23 13.22 278.83 13.22ZM297.726 29.12C296.146 29.12 294.746 28.78 293.526 28.1C292.326 27.42 291.376 26.48 290.676 25.28C289.996 24.08 289.656 22.71 289.656 21.17C289.656 19.61 289.976 18.24 290.616 17.06C291.276 15.86 292.176 14.92 293.316 14.24C294.456 13.56 295.736 13.22 297.156 13.22C298.576 13.22 299.846 13.55 300.966 14.21C302.106 14.87 302.996 15.8 303.636 17C304.296 18.18 304.626 19.55 304.626 21.11C304.626 21.17 304.616 21.24 304.596 21.32C304.596 21.38 304.596 21.45 304.596 21.53H290.766V20.36H303.786L303.186 20.93C303.206 19.71 302.946 18.62 302.406 17.66C301.886 16.68 301.176 15.92 300.276 15.38C299.376 14.82 298.336 14.54 297.156 14.54C295.996 14.54 294.956 14.82 294.036 15.38C293.136 15.92 292.426 16.68 291.906 17.66C291.386 18.62 291.126 19.72 291.126 20.96V21.23C291.126 22.51 291.406 23.65 291.966 24.65C292.546 25.63 293.336 26.4 294.336 26.96C295.336 27.5 296.476 27.77 297.756 27.77C298.756 27.77 299.686 27.59 300.546 27.23C301.426 26.87 302.166 26.32 302.766 25.58L303.636 26.57C302.956 27.41 302.096 28.05 301.056 28.49C300.036 28.91 298.926 29.12 297.726 29.12ZM313.826 29.12C312.446 29.12 311.386 28.74 310.646 27.98C309.926 27.22 309.566 26.18 309.566 24.86V9.92H311.066V24.71C311.066 25.71 311.316 26.48 311.816 27.02C312.316 27.56 313.036 27.83 313.976 27.83C314.956 27.83 315.766 27.54 316.406 26.96L317.036 28.01C316.636 28.39 316.146 28.67 315.566 28.85C315.006 29.03 314.426 29.12 313.826 29.12ZM306.686 14.63V13.34H316.046V14.63H306.686ZM323.986 29L318.046 13.34H319.486L325.006 28.16H324.376L330.046 13.34H331.336L336.976 28.16H336.316L341.926 13.34H343.306L337.366 29H335.956L330.436 14.78H330.916L325.366 29H323.986ZM352.476 29.12C350.976 29.12 349.636 28.78 348.456 28.1C347.296 27.42 346.366 26.48 345.666 25.28C344.986 24.08 344.646 22.71 344.646 21.17C344.646 19.61 344.986 18.24 345.666 17.06C346.366 15.86 347.296 14.92 348.456 14.24C349.636 13.56 350.976 13.22 352.476 13.22C353.976 13.22 355.316 13.56 356.496 14.24C357.676 14.92 358.606 15.86 359.286 17.06C359.966 18.24 360.306 19.61 360.306 21.17C360.306 22.71 359.966 24.08 359.286 25.28C358.606 26.48 357.676 27.42 356.496 28.1C355.316 28.78 353.976 29.12 352.476 29.12ZM352.476 27.77C353.676 27.77 354.756 27.5 355.716 26.96C356.676 26.4 357.426 25.62 357.966 24.62C358.506 23.62 358.776 22.47 358.776 21.17C358.776 19.85 358.506 18.7 357.966 17.72C357.426 16.72 356.676 15.95 355.716 15.41C354.756 14.85 353.676 14.57 352.476 14.57C351.276 14.57 350.196 14.85 349.236 15.41C348.296 15.95 347.546 16.72 346.986 17.72C346.446 18.7 346.176 19.85 346.176 21.17C346.176 22.47 346.446 23.62 346.986 24.62C347.546 25.62 348.296 26.4 349.236 26.96C350.196 27.5 351.276 27.77 352.476 27.77ZM364.959 29V13.34H366.399V17.63L366.249 17.15C366.689 15.89 367.429 14.92 368.469 14.24C369.509 13.56 370.809 13.22 372.369 13.22V14.69C372.309 14.69 372.249 14.69 372.189 14.69C372.129 14.67 372.069 14.66 372.009 14.66C370.269 14.66 368.909 15.21 367.929 16.31C366.949 17.39 366.459 18.9 366.459 20.84V29H364.959ZM377.642 24.68L377.672 22.79L388.022 13.34H389.942L383.072 19.79L382.172 20.54L377.642 24.68ZM376.502 29V6.74H378.002V29H376.502ZM388.742 29L381.902 20.42L382.922 19.31L390.602 29H388.742Z" fill="white"/>
</svg>
