<svg id="visual" viewBox="0 0 960 540" width="960" height="540" xmlns="http://www.w3.org/2000/svg" xmlns:xlink="http://www.w3.org/1999/xlink" version="1.1"><rect width="960" height="540" fill="#00080e"></rect><g><g transform="translate(459 69)"><path d="M0 -28.7L24.9 -14.4L24.9 14.4L0 28.7L-24.9 14.4L-24.9 -14.4Z" fill="#FFFFFF"></path></g><g transform="translate(767 33)"><path d="M0 -15L13 -7.5L13 7.5L0 15L-13 7.5L-13 -7.5Z" fill="#FFFFFF"></path></g><g transform="translate(82 307)"><path d="M0 -18L15.6 -9L15.6 9L0 18L-15.6 9L-15.6 -9Z" fill="#FFFFFF"></path></g><g transform="translate(418 502)"><path d="M0 -16L13.9 -8L13.9 8L0 16L-13.9 8L-13.9 -8Z" fill="#FFFFFF"></path></g><g transform="translate(194 179)"><path d="M0 -26L22.5 -13L22.5 13L0 26L-22.5 13L-22.5 -13Z" fill="#FFFFFF"></path></g><g transform="translate(436 133)"><path d="M0 -24L20.8 -12L20.8 12L0 24L-20.8 12L-20.8 -12Z" fill="#FFFFFF"></path></g><g transform="translate(605 170)"><path d="M0 -24L20.8 -12L20.8 12L0 24L-20.8 12L-20.8 -12Z" fill="#FFFFFF"></path></g><g transform="translate(655 371)"><path d="M0 -15L13 -7.5L13 7.5L0 15L-13 7.5L-13 -7.5Z" fill="#FFFFFF"></path></g><g transform="translate(301 334)"><path d="M0 -25L21.7 -12.5L21.7 12.5L0 25L-21.7 12.5L-21.7 -12.5Z" fill="#FFFFFF"></path></g><g transform="translate(451 287)"><path d="M0 -25L21.7 -12.5L21.7 12.5L0 25L-21.7 12.5L-21.7 -12.5Z" fill="#FFFFFF"></path></g><g transform="translate(207 415)"><path d="M0 -18L15.6 -9L15.6 9L0 18L-15.6 9L-15.6 -9Z" fill="#FFFFFF"></path></g><g transform="translate(128 121)"><path d="M0 -21L18.2 -10.5L18.2 10.5L0 21L-18.2 10.5L-18.2 -10.5Z" fill="#FFFFFF"></path></g></g></svg>