<svg width="300" height="300" viewBox="0 0 300 300" fill="none" xmlns="http://www.w3.org/2000/svg">
<g clip-path="url(#clip0_31_2)">
<rect width="300" height="300" fill="white"/>
<g style="mix-blend-mode:darken">
<path d="M9.5 60V60.5H10H290H290.5V60V10V9.5H290H10H9.5V10V60ZM0.5 60V0.5H299.5V60V70V299.5H0.5V70V60ZM85.5 235V195.5H100C103.036 195.5 105.5 193.036 105.5 190C105.5 186.964 103.036 184.5 100 184.5H85.5V175C85.5 171.964 83.0361 169.5 80 169.5C76.9639 169.5 74.5 171.964 74.5 175V184.5H50.5V135C50.5 131.964 48.0361 129.5 45 129.5C41.9639 129.5 39.5 131.964 39.5 135V190C39.5 193.036 41.9639 195.5 45 195.5H74.5V235C74.5 238.036 76.9639 240.5 80 240.5C83.0361 240.5 85.5 238.036 85.5 235ZM147.5 240.5C165.696 240.5 180.5 225.696 180.5 207.5V162.5C180.5 144.304 165.696 129.5 147.5 129.5C129.304 129.5 114.5 144.304 114.5 162.5V207.5C114.5 225.696 129.304 240.5 147.5 240.5ZM240.5 235V195.5H255C258.036 195.5 260.5 193.036 260.5 190C260.5 186.964 258.036 184.5 255 184.5H240.5V175C240.5 171.964 238.036 169.5 235 169.5C231.964 169.5 229.5 171.964 229.5 175V184.5H205.5V135C205.5 131.964 203.036 129.5 200 129.5C196.964 129.5 194.5 131.964 194.5 135V190C194.5 193.036 196.964 195.5 200 195.5H229.5V235C229.5 238.036 231.964 240.5 235 240.5C238.036 240.5 240.5 238.036 240.5 235Z" fill="black"/>
<path d="M9.5 60V60.5H10H290H290.5V60V10V9.5H290H10H9.5V10V60ZM0.5 60V0.5H299.5V60V70V299.5H0.5V70V60ZM85.5 235V195.5H100C103.036 195.5 105.5 193.036 105.5 190C105.5 186.964 103.036 184.5 100 184.5H85.5V175C85.5 171.964 83.0361 169.5 80 169.5C76.9639 169.5 74.5 171.964 74.5 175V184.5H50.5V135C50.5 131.964 48.0361 129.5 45 129.5C41.9639 129.5 39.5 131.964 39.5 135V190C39.5 193.036 41.9639 195.5 45 195.5H74.5V235C74.5 238.036 76.9639 240.5 80 240.5C83.0361 240.5 85.5 238.036 85.5 235ZM147.5 240.5C165.696 240.5 180.5 225.696 180.5 207.5V162.5C180.5 144.304 165.696 129.5 147.5 129.5C129.304 129.5 114.5 144.304 114.5 162.5V207.5C114.5 225.696 129.304 240.5 147.5 240.5ZM240.5 235V195.5H255C258.036 195.5 260.5 193.036 260.5 190C260.5 186.964 258.036 184.5 255 184.5H240.5V175C240.5 171.964 238.036 169.5 235 169.5C231.964 169.5 229.5 171.964 229.5 175V184.5H205.5V135C205.5 131.964 203.036 129.5 200 129.5C196.964 129.5 194.5 131.964 194.5 135V190C194.5 193.036 196.964 195.5 200 195.5H229.5V235C229.5 238.036 231.964 240.5 235 240.5C238.036 240.5 240.5 238.036 240.5 235Z" stroke="black"/>
</g>
<path d="M271.465 16.4648L260 27.9298L248.535 16.4648L241.465 23.5348L252.93 34.9998L241.465 46.4648L248.535 53.5348L260 42.0698L271.465 53.5348L278.535 46.4648L267.07 34.9998L278.535 23.5348L271.465 16.4648Z" fill="black"/>
<path d="M210 15H15V55H210V15Z" fill="black"/>
<path d="M147.5 140C135.095 140 125 150.095 125 162.5V207.5C125 219.905 135.095 230 147.5 230C159.905 230 170 219.905 170 207.5V162.5C170 150.095 159.905 140 147.5 140Z" fill="black"/>
</g>
<defs>
<clipPath id="clip0_31_2">
<rect width="300" height="300" fill="white"/>
</clipPath>
</defs>
</svg>
